<svg width="518" height="518" viewBox="0 0 518 518" fill="none" xmlns="http://www.w3.org/2000/svg">
<mask id="mask0_121_562" style="mask-type:alpha" maskUnits="userSpaceOnUse" x="0" y="0" width="518" height="518">
<mask id="path-1-inside-1_121_562" fill="white">
<path d="M0 0H64.75V64.75H0V0Z"/>
<path d="M64.75 0H129.5V64.75H64.75V0Z"/>
<path d="M129.5 0H194.25V64.75H129.5V0Z"/>
<path d="M194.25 0H259V64.75H194.25V0Z"/>
<path d="M259 0H323.75V64.75H259V0Z"/>
<path d="M323.75 0H388.5V64.75H323.75V0Z"/>
<path d="M388.5 0H453.25V64.75H388.5V0Z"/>
<path d="M453.25 0H518V64.75H453.25V0Z"/>
<path d="M0 64.75H64.75V129.5H0V64.75Z"/>
<path d="M64.75 64.75H129.5V129.5H64.75V64.75Z"/>
<path d="M129.5 64.75H194.25V129.5H129.5V64.75Z"/>
<path d="M194.25 64.75H259V129.5H194.25V64.75Z"/>
<path d="M259 64.75H323.75V129.5H259V64.75Z"/>
<path d="M323.75 64.75H388.5V129.5H323.75V64.75Z"/>
<path d="M388.5 64.75H453.25V129.5H388.5V64.75Z"/>
<path d="M453.25 64.75H518V129.5H453.25V64.75Z"/>
<path d="M0 129.5H64.75V194.25H0V129.5Z"/>
<path d="M64.75 129.5H129.5V194.25H64.75V129.5Z"/>
<path d="M129.5 129.5H194.25V194.25H129.5V129.5Z"/>
<path d="M194.25 129.5H259V194.25H194.25V129.5Z"/>
<path d="M259 129.5H323.75V194.25H259V129.5Z"/>
<path d="M323.75 129.5H388.5V194.25H323.75V129.5Z"/>
<path d="M388.5 129.5H453.25V194.25H388.5V129.5Z"/>
<path d="M453.25 129.5H518V194.25H453.25V129.5Z"/>
<path d="M0 194.25H64.75V259H0V194.25Z"/>
<path d="M64.75 194.25H129.5V259H64.75V194.25Z"/>
<path d="M129.5 194.25H194.25V259H129.5V194.25Z"/>
<path d="M194.25 194.25H259V259H194.25V194.25Z"/>
<path d="M259 194.25H323.75V259H259V194.25Z"/>
<path d="M323.75 194.25H388.5V259H323.75V194.25Z"/>
<path d="M388.5 194.25H453.25V259H388.5V194.25Z"/>
<path d="M453.25 194.25H518V259H453.25V194.25Z"/>
<path d="M0 259H64.75V323.75H0V259Z"/>
<path d="M64.75 259H129.5V323.75H64.75V259Z"/>
<path d="M129.5 259H194.25V323.75H129.5V259Z"/>
<path d="M194.25 259H259V323.75H194.25V259Z"/>
<path d="M259 259H323.75V323.75H259V259Z"/>
<path d="M323.75 259H388.5V323.75H323.75V259Z"/>
<path d="M388.5 259H453.25V323.75H388.5V259Z"/>
<path d="M453.25 259H518V323.75H453.25V259Z"/>
<path d="M0 323.75H64.75V388.5H0V323.75Z"/>
<path d="M64.75 323.75H129.5V388.5H64.75V323.75Z"/>
<path d="M129.5 323.75H194.25V388.5H129.5V323.75Z"/>
<path d="M194.25 323.75H259V388.5H194.25V323.75Z"/>
<path d="M259 323.75H323.75V388.5H259V323.75Z"/>
<path d="M323.75 323.75H388.5V388.5H323.75V323.75Z"/>
<path d="M388.5 323.75H453.25V388.5H388.5V323.75Z"/>
<path d="M453.25 323.75H518V388.5H453.25V323.75Z"/>
<path d="M0 388.5H64.75V453.25H0V388.5Z"/>
<path d="M64.75 388.5H129.5V453.25H64.75V388.5Z"/>
<path d="M129.5 388.5H194.25V453.25H129.5V388.5Z"/>
<path d="M194.25 388.5H259V453.25H194.25V388.5Z"/>
<path d="M259 388.5H323.75V453.25H259V388.5Z"/>
<path d="M323.75 388.5H388.5V453.25H323.75V388.5Z"/>
<path d="M388.5 388.5H453.25V453.25H388.5V388.5Z"/>
<path d="M453.25 388.5H518V453.25H453.25V388.5Z"/>
<path d="M0 453.25H64.75V518H0V453.25Z"/>
<path d="M64.75 453.25H129.5V518H64.75V453.25Z"/>
<path d="M129.5 453.25H194.25V518H129.5V453.25Z"/>
<path d="M194.25 453.25H259V518H194.25V453.25Z"/>
<path d="M259 453.25H323.75V518H259V453.25Z"/>
<path d="M323.75 453.25H388.5V518H323.75V453.25Z"/>
<path d="M388.5 453.25H453.25V518H388.5V453.25Z"/>
<path d="M453.25 453.25H518V518H453.25V453.25Z"/>
</mask>
<path d="M64.25 0V64.75H65.25V0H64.25ZM64.75 64.25H0V65.25H64.75V64.25ZM129 0V64.75H130V0H129ZM129.5 64.25H64.75V65.25H129.5V64.25ZM193.75 0V64.75H194.75V0H193.75ZM194.25 64.25H129.5V65.25H194.25V64.25ZM258.5 0V64.75H259.5V0H258.5ZM259 64.25H194.25V65.25H259V64.25ZM323.25 0V64.75H324.25V0H323.25ZM323.75 64.25H259V65.25H323.75V64.25ZM388 0V64.75H389V0H388ZM388.5 64.25H323.75V65.25H388.5V64.25ZM452.75 0V64.75H453.75V0H452.75ZM453.25 64.25H388.5V65.25H453.25V64.25ZM518 64.25H453.25V65.25H518V64.25ZM64.25 64.75V129.5H65.25V64.75H64.25ZM64.75 129H0V130H64.75V129ZM129 64.75V129.5H130V64.75H129ZM129.5 129H64.75V130H129.5V129ZM193.75 64.75V129.5H194.75V64.75H193.75ZM194.25 129H129.5V130H194.25V129ZM258.5 64.75V129.5H259.5V64.75H258.5ZM259 129H194.25V130H259V129ZM323.25 64.75V129.5H324.25V64.75H323.25ZM323.75 129H259V130H323.75V129ZM388 64.75V129.5H389V64.75H388ZM388.5 129H323.75V130H388.5V129ZM452.75 64.75V129.5H453.75V64.75H452.75ZM453.25 129H388.5V130H453.25V129ZM518 129H453.25V130H518V129ZM64.25 129.5V194.25H65.25V129.5H64.25ZM64.75 193.75H0V194.75H64.75V193.75ZM129 129.5V194.25H130V129.5H129ZM129.5 193.75H64.75V194.75H129.5V193.75ZM193.75 129.5V194.25H194.75V129.5H193.75ZM194.25 193.75H129.5V194.75H194.25V193.75ZM258.5 129.5V194.25H259.5V129.5H258.5ZM259 193.75H194.25V194.75H259V193.75ZM323.25 129.5V194.25H324.25V129.5H323.25ZM323.75 193.75H259V194.75H323.75V193.75ZM388 129.5V194.25H389V129.5H388ZM388.5 193.75H323.75V194.75H388.5V193.75ZM452.75 129.5V194.25H453.75V129.5H452.75ZM453.25 193.75H388.5V194.75H453.25V193.75ZM518 193.75H453.25V194.75H518V193.75ZM64.25 194.25V259H65.25V194.25H64.25ZM64.75 258.5H0V259.5H64.75V258.5ZM129 194.25V259H130V194.25H129ZM129.5 258.5H64.75V259.5H129.5V258.5ZM193.75 194.25V259H194.75V194.25H193.75ZM194.25 258.5H129.5V259.5H194.25V258.5ZM258.5 194.25V259H259.5V194.25H258.5ZM259 258.5H194.25V259.5H259V258.5ZM323.25 194.25V259H324.25V194.25H323.25ZM323.75 258.5H259V259.5H323.75V258.5ZM388 194.25V259H389V194.25H388ZM388.5 258.5H323.75V259.5H388.5V258.5ZM452.75 194.25V259H453.75V194.25H452.75ZM453.25 258.5H388.5V259.5H453.25V258.5ZM518 258.5H453.25V259.5H518V258.5ZM64.25 259V323.75H65.25V259H64.25ZM64.75 323.25H0V324.25H64.75V323.25ZM129 259V323.75H130V259H129ZM129.5 323.25H64.75V324.25H129.5V323.25ZM193.75 259V323.75H194.75V259H193.75ZM194.25 323.25H129.5V324.25H194.25V323.25ZM258.5 259V323.75H259.5V259H258.5ZM259 323.25H194.25V324.25H259V323.25ZM323.25 259V323.75H324.25V259H323.25ZM323.75 323.25H259V324.25H323.75V323.25ZM388 259V323.75H389V259H388ZM388.5 323.25H323.75V324.25H388.5V323.25ZM452.75 259V323.75H453.75V259H452.75ZM453.25 323.25H388.5V324.25H453.25V323.25ZM518 323.25H453.25V324.25H518V323.25ZM64.25 323.75V388.5H65.25V323.75H64.25ZM64.75 388H0V389H64.75V388ZM129 323.75V388.5H130V323.75H129ZM129.5 388H64.75V389H129.5V388ZM193.75 323.75V388.5H194.75V323.75H193.75ZM194.25 388H129.5V389H194.25V388ZM258.5 323.75V388.5H259.5V323.75H258.5ZM259 388H194.25V389H259V388ZM323.25 323.75V388.5H324.25V323.75H323.25ZM323.75 388H259V389H323.75V388ZM388 323.75V388.5H389V323.75H388ZM388.5 388H323.75V389H388.5V388ZM452.75 323.75V388.5H453.75V323.75H452.75ZM453.25 388H388.5V389H453.25V388ZM518 388H453.25V389H518V388ZM64.25 388.5V453.25H65.25V388.5H64.25ZM64.75 452.75H0V453.75H64.75V452.75ZM129 388.5V453.25H130V388.5H129ZM129.5 452.75H64.75V453.75H129.5V452.75ZM193.75 388.5V453.25H194.75V388.5H193.75ZM194.25 452.75H129.5V453.75H194.25V452.75ZM258.5 388.5V453.25H259.5V388.5H258.5ZM259 452.75H194.25V453.75H259V452.75ZM323.25 388.5V453.25H324.25V388.5H323.25ZM323.75 452.75H259V453.75H323.75V452.75ZM388 388.5V453.25H389V388.5H388ZM388.5 452.75H323.75V453.75H388.5V452.75ZM452.75 388.5V453.25H453.75V388.5H452.75ZM453.25 452.75H388.5V453.75H453.25V452.75ZM518 452.75H453.25V453.75H518V452.75ZM64.25 453.25V518H65.25V453.25H64.25ZM129 453.25V518H130V453.25H129ZM193.75 453.25V518H194.75V453.25H193.75ZM258.5 453.25V518H259.5V453.25H258.5ZM323.25 453.25V518H324.25V453.25H323.25ZM388 453.25V518H389V453.25H388ZM452.75 453.25V518H453.75V453.25H452.75ZM0 0V-1H-1V0H0ZM518 0H519V-1H518V0ZM0 518H-1V519H0V518ZM518 518V519H519V518H518ZM0 1H64.75V-1H0V1ZM1 64.75V0H-1V64.75H1ZM64.75 1H129.5V-1H64.75V1ZM129.5 1H194.25V-1H129.5V1ZM194.25 1H259V-1H194.25V1ZM259 1H323.75V-1H259V1ZM323.75 1H388.5V-1H323.75V1ZM388.5 1H453.25V-1H388.5V1ZM453.25 1H518V-1H453.25V1ZM517 0V64.75H519V0H517ZM1 129.5V64.75H-1V129.5H1ZM517 64.75V129.5H519V64.75H517ZM1 194.25V129.5H-1V194.25H1ZM517 129.5V194.25H519V129.5H517ZM1 259V194.25H-1V259H1ZM517 194.25V259H519V194.25H517ZM1 323.75V259H-1V323.75H1ZM517 259V323.75H519V259H517ZM1 388.5V323.75H-1V388.5H1ZM517 323.75V388.5H519V323.75H517ZM1 453.25V388.5H-1V453.25H1ZM517 388.5V453.25H519V388.5H517ZM64.75 517H0V519H64.75V517ZM1 518V453.25H-1V518H1ZM129.5 517H64.75V519H129.5V517ZM194.25 517H129.5V519H194.25V517ZM259 517H194.25V519H259V517ZM323.75 517H259V519H323.75V517ZM388.5 517H323.75V519H388.5V517ZM453.25 517H388.5V519H453.25V517ZM517 453.25V518H519V453.25H517ZM518 517H453.25V519H518V517Z" fill="white" mask="url(#path-1-inside-1_121_562)"/>
</mask>
<g mask="url(#mask0_121_562)">
<rect x="-16" y="-18" width="592" height="592" fill="url(#paint0_radial_121_562)"/>
</g>
<defs>
<radialGradient id="paint0_radial_121_562" cx="0" cy="0" r="1" gradientUnits="userSpaceOnUse" gradientTransform="translate(279.632 277.632) rotate(89.9289) scale(296.368)">
<stop stop-color="#2C2C2C"/>
<stop offset="0.541667" stop-color="#2C2C2C"/>
<stop offset="1" stop-color="#2C2C2C" stop-opacity="0"/>
</radialGradient>
</defs>
</svg>
